<?xml version="1.0" encoding="utf-8"?>
<!-- Generator: Adobe Illustrator 19.0.0, SVG Export Plug-In . SVG Version: 6.00 Build 0)  -->
<svg version="1.1" id="Layer_1" xmlns="http://www.w3.org/2000/svg" xmlns:xlink="http://www.w3.org/1999/xlink" x="0px" y="0px"
	 viewBox="-473.5 255 54 54" style="enable-background:new -473.5 255 54 54;" xml:space="preserve">
<style type="text/css">
	.st0{fill:#FFFFFF;}
</style>
<circle cx="-446.5" cy="282" r="27"/>
<path class="st0" d="M-446.5,298c-8.8,0-16-7.2-16-16s7.2-16,16-16s16,7.2,16,16S-437.7,298-446.5,298L-446.5,298z M-433,284.2
	c-0.5-0.1-4.2-1.3-8.5-0.6c1.8,4.9,2.5,8.9,2.7,9.7C-435.8,291.3-433.6,288-433,284.2C-433,284.2-433,284.2-433,284.2z
	 M-441.2,294.6c-0.2-1.2-1-5.4-2.9-10.4c0,0-0.1,0-0.1,0c-7.7,2.7-10.5,8-10.7,8.5c2.3,1.8,5.2,2.9,8.4,2.9
	C-444.6,295.7-442.8,295.3-441.2,294.6L-441.2,294.6L-441.2,294.6z M-456.7,291.2c0.3-0.5,4.1-6.7,11.1-9c0.2-0.1,0.4-0.1,0.5-0.2
	c-0.3-0.8-0.7-1.6-1.1-2.3c-6.8,2-13.4,2-14,1.9c0,0.1,0,0.3,0,0.4C-460.2,285.5-458.8,288.7-456.7,291.2
	C-456.7,291.2-456.7,291.2-456.7,291.2z M-459.9,279.2c0.6,0,6.2,0,12.6-1.7c-2.3-4-4.7-7.4-5.1-7.9
	C-456.1,271.5-459,275-459.9,279.2L-459.9,279.2L-459.9,279.2z M-449.7,268.7c0.4,0.5,2.9,3.9,5.1,8c4.9-1.8,6.9-4.6,7.2-4.9
	c-2.4-2.1-5.6-3.4-9.1-3.4C-447.6,268.4-448.7,268.5-449.7,268.7L-449.7,268.7L-449.7,268.7z M-435.9,273.4
	c-0.3,0.4-2.6,3.3-7.6,5.4c0.3,0.6,0.6,1.3,0.9,2c0.1,0.2,0.2,0.5,0.3,0.7c4.6-0.6,9.1,0.3,9.5,0.4
	C-432.9,278.7-434,275.7-435.9,273.4L-435.9,273.4L-435.9,273.4z"/>
</svg>
