<?xml version="1.0" encoding="utf-8"?>
<!-- Generator: Adobe Illustrator 19.0.0, SVG Export Plug-In . SVG Version: 6.00 Build 0)  -->
<svg version="1.1" id="Layer_1" xmlns="http://www.w3.org/2000/svg" xmlns:xlink="http://www.w3.org/1999/xlink" x="0px" y="0px"
	 viewBox="-474 255.9 54 54" style="enable-background:new -474 255.9 54 54;" xml:space="preserve">
<style type="text/css">
	.st0{fill:#FFFFFF;}
</style>
<circle cx="-447" cy="282.9" r="27"/>
<g id="LinkedIn">
	<path class="st0" d="M-451,277.9h5.5v2.8h0.1c0.8-1.4,2.7-2.8,5.5-2.8c5.8,0,6.9,3.6,6.9,8.4v9.6h-5.8v-8.5c0-2,0-4.7-3-4.7
		c-3,0-3.5,2.2-3.5,4.5v8.7h-5.8V277.9z"/>
	<path class="st0" d="M-461,277.9h6v18h-6V277.9z"/>
	<path class="st0" d="M-455,272.9c0,1.7-1.3,3-3,3s-3-1.3-3-3s1.3-3,3-3S-455,271.2-455,272.9z"/>
</g>
</svg>
